<svg width="48" height="48" viewBox="0 0 48 48" fill="none" xmlns="http://www.w3.org/2000/svg">
<g clip-path="url(#clip0_20_2)">
<circle cx="24" cy="24" r="22.5" fill="#3D93D0" stroke="#141218" stroke-width="3"/>
<path d="M32 27L32.7115 26.7628L32 27ZM35.1923 17.7115C35.033 17.3292 34.5939 17.1484 34.2115 17.3077C33.8292 17.467 33.6484 17.9061 33.8077 18.2885L34.5 18L35.1923 17.7115ZM30 26V26.75C30.4856 26.75 30.7847 26.7912 30.9763 26.8724C31.1147 26.931 31.2141 27.0141 31.2885 27.2372L32 27L32.7115 26.7628C32.503 26.1374 32.1024 25.7204 31.5616 25.4913C31.0739 25.2846 30.5144 25.25 30 25.25V26ZM32 27L31.2885 27.2372C31.4953 27.8576 31.4964 28.2907 31.4417 28.8033C31.3865 29.3215 31.25 30.0411 31.25 31H32H32.75C32.75 30.1464 32.8635 29.616 32.9333 28.9624C33.0036 28.3031 33.0047 27.6424 32.7115 26.7628L32 27ZM32 31H31.25C31.25 31.9102 31.188 32.9026 31.2193 33.7163C31.2529 34.5908 31.3899 35.4568 31.8292 36.3354L32.5 36L33.1708 35.6646C32.8601 35.0432 32.7471 34.4092 32.7182 33.6587C32.687 32.8474 32.75 32.0898 32.75 31H32ZM32.5 36L31.8292 36.3354C32.2604 37.1978 33.2366 37.5 34 37.5C34.7634 37.5 35.7396 37.1978 36.1708 36.3354L35.5 36L34.8292 35.6646C34.7604 35.8022 34.4866 36 34 36C33.5134 36 33.2396 35.8022 33.1708 35.6646L32.5 36ZM35.5 36L36.1708 36.3354C36.5185 35.6401 36.765 34.4924 36.9212 33.1563C37.0809 31.7913 37.1556 30.1398 37.1149 28.3776C37.0338 24.8681 36.493 20.8333 35.1923 17.7115L34.5 18L33.8077 18.2885C35.007 21.1667 35.5363 24.9918 35.6153 28.4122C35.6546 30.1149 35.5818 31.6959 35.4314 32.9821C35.2776 34.2974 35.0516 35.2197 34.8292 35.6646L35.5 36Z" fill="#141218"/>
<path d="M34.848 19.7736C34.7105 19.866 34.361 20.0574 34.071 20.2473C33.8255 20.408 33.8318 20.7473 33.7745 21.0089C33.7086 21.3098 33.6842 21.6126 33.6829 22.2166C33.6822 22.5652 33.9516 22.7905 34.1638 23.0974C34.4005 23.4397 34.7345 23.4784 35.0386 23.5099C35.1787 23.5573 35.3028 23.6214 35.4281 23.6565C35.4962 23.6602 35.5737 23.6351 35.6535 23.6092" stroke="#141218" stroke-linecap="round"/>
<rect x="16" y="24" width="14" height="14" fill="#141218"/>
<rect x="14" y="12" width="18" height="12" fill="#141218"/>
<rect x="16" y="14" width="12" height="8" rx="1" fill="#E6E0E9"/>
</g>
<defs>
<clipPath id="clip0_20_2">
<rect width="48" height="48" fill="white"/>
</clipPath>
</defs>
</svg>
