<svg width="48" height="48" viewBox="0 0 48 48" fill="none" xmlns="http://www.w3.org/2000/svg">
<path d="M43.0163 29.3636V30.9545H38.4176V29.3636H43.0163ZM39.4616 27.5341H41.5795V34.6534C41.5795 34.849 41.6094 35.0014 41.669 35.1108C41.7287 35.2169 41.8115 35.2914 41.9176 35.3345C42.027 35.3776 42.1529 35.3991 42.2955 35.3991C42.3949 35.3991 42.4943 35.3909 42.5937 35.3743C42.6932 35.3544 42.7694 35.3395 42.8224 35.3295L43.1555 36.9055C43.0495 36.9387 42.9003 36.9768 42.7081 37.0199C42.5159 37.0663 42.2822 37.0945 42.0071 37.1044C41.4967 37.1243 41.0492 37.0563 40.6648 36.9006C40.2836 36.7448 39.987 36.5028 39.7749 36.1747C39.5627 35.8466 39.4583 35.4323 39.4616 34.9318V27.5341Z" fill="#E6E0E9"/>
<path d="M34.0675 37.1491C33.282 37.1491 32.6058 36.9901 32.0391 36.6719C31.4756 36.3504 31.0414 35.8963 30.7365 35.3097C30.4316 34.7197 30.2791 34.022 30.2791 33.2166C30.2791 32.4311 30.4316 31.7417 30.7365 31.1484C31.0414 30.5552 31.4706 30.0928 32.0241 29.7614C32.581 29.4299 33.2339 29.2642 33.983 29.2642C34.4867 29.2642 34.9557 29.3454 35.3899 29.5078C35.8274 29.6669 36.2086 29.9072 36.5334 30.2287C36.8615 30.5502 37.1167 30.9545 37.299 31.4418C37.4813 31.9257 37.5724 32.4924 37.5724 33.142V33.7237H31.1243V32.4112H35.5788C35.5788 32.1063 35.5125 31.8362 35.38 31.6009C35.2474 31.3655 35.0634 31.1816 34.8281 31.049C34.5961 30.9131 34.326 30.8452 34.0178 30.8452C33.6963 30.8452 33.4112 30.9197 33.1626 31.0689C32.9174 31.2147 32.7251 31.4119 32.5859 31.6605C32.4467 31.9058 32.3755 32.1792 32.3722 32.4808V33.7287C32.3722 34.1065 32.4418 34.433 32.581 34.7081C32.7235 34.9832 32.924 35.1953 33.1825 35.3445C33.4411 35.4936 33.7476 35.5682 34.1023 35.5682C34.3376 35.5682 34.553 35.535 34.7486 35.4687C34.9441 35.4025 35.1115 35.303 35.2507 35.1705C35.3899 35.0379 35.496 34.8755 35.5689 34.6832L37.5277 34.8125C37.4283 35.2831 37.2244 35.6941 36.9162 36.0455C36.6113 36.3935 36.2169 36.6652 35.733 36.8608C35.2524 37.053 34.6972 37.1491 34.0675 37.1491Z" fill="#E6E0E9"/>
<path d="M29.0797 31.5412L27.1408 31.6605C27.1077 31.4948 27.0364 31.3456 26.927 31.2131C26.8176 31.0772 26.6735 30.9695 26.4945 30.8899C26.3188 30.8071 26.1084 30.7656 25.8631 30.7656C25.535 30.7656 25.2582 30.8352 25.0328 30.9744C24.8075 31.1103 24.6948 31.2926 24.6948 31.5213C24.6948 31.7036 24.7677 31.8577 24.9135 31.9837C25.0594 32.1096 25.3096 32.2107 25.6642 32.2869L27.0463 32.5653C27.7888 32.7178 28.3423 32.9631 28.7069 33.3011C29.0714 33.6392 29.2537 34.0833 29.2537 34.6335C29.2537 35.134 29.1062 35.5732 28.8113 35.951C28.5196 36.3288 28.1186 36.6238 27.6081 36.8359C27.101 37.0447 26.516 37.1491 25.8532 37.1491C24.8423 37.1491 24.0369 36.9387 23.437 36.5178C22.8404 36.0935 22.4907 35.5168 22.388 34.7876L24.4711 34.6783C24.534 34.9865 24.6865 35.2218 24.9284 35.3842C25.1704 35.5433 25.4803 35.6229 25.8581 35.6229C26.2293 35.6229 26.5276 35.5516 26.753 35.4091C26.9817 35.2633 27.0977 35.076 27.101 34.8473C27.0977 34.6551 27.0165 34.4976 26.8574 34.375C26.6983 34.2491 26.4531 34.1529 26.1216 34.0866L24.7992 33.8232C24.0534 33.674 23.4983 33.4155 23.1337 33.0476C22.7724 32.6797 22.5918 32.2107 22.5918 31.6406C22.5918 31.1501 22.7244 30.7275 22.9895 30.3729C23.258 30.0182 23.6342 29.7448 24.1181 29.5526C24.6053 29.3603 25.1754 29.2642 25.8283 29.2642C26.7928 29.2642 27.5518 29.468 28.1053 29.8757C28.6621 30.2834 28.9869 30.8385 29.0797 31.5412Z" fill="#E6E0E9"/>
<path d="M17.839 37.1491C17.0534 37.1491 16.3773 36.9901 15.8105 36.6719C15.2471 36.3504 14.8129 35.8963 14.508 35.3097C14.2031 34.7197 14.0506 34.022 14.0506 33.2166C14.0506 32.4311 14.2031 31.7417 14.508 31.1484C14.8129 30.5552 15.2421 30.0928 15.7956 29.7614C16.3525 29.4299 17.0054 29.2642 17.7544 29.2642C18.2582 29.2642 18.7272 29.3454 19.1614 29.5078C19.5989 29.6669 19.9801 29.9072 20.3049 30.2287C20.633 30.5502 20.8882 30.9545 21.0705 31.4418C21.2528 31.9257 21.3439 32.4924 21.3439 33.142V33.7237H14.8958V32.4112H19.3503C19.3503 32.1063 19.284 31.8362 19.1515 31.6009C19.0189 31.3655 18.8349 31.1816 18.5996 31.049C18.3676 30.9131 18.0975 30.8452 17.7892 30.8452C17.4677 30.8452 17.1827 30.9197 16.9341 31.0689C16.6889 31.2147 16.4966 31.4119 16.3574 31.6605C16.2182 31.9058 16.147 32.1792 16.1436 32.4808V33.7287C16.1436 34.1065 16.2132 34.433 16.3524 34.7081C16.495 34.9832 16.6955 35.1953 16.954 35.3445C17.2125 35.4936 17.5191 35.5682 17.8738 35.5682C18.1091 35.5682 18.3245 35.535 18.5201 35.4687C18.7156 35.4025 18.883 35.303 19.0222 35.1705C19.1614 35.0379 19.2675 34.8755 19.3404 34.6832L21.2992 34.8125C21.1998 35.2831 20.9959 35.6941 20.6877 36.0455C20.3828 36.3935 19.9883 36.6652 19.5044 36.8608C19.0239 37.053 18.4687 37.1491 17.839 37.1491Z" fill="#E6E0E9"/>
<path d="M5.33416 37V26.8182H9.35121C10.1201 26.8182 10.7764 26.9557 11.32 27.2308C11.8668 27.5026 12.2828 27.8887 12.5678 28.3892C12.8562 28.8864 13.0004 29.4714 13.0004 30.1442C13.0004 30.8203 12.8545 31.402 12.5629 31.8892C12.2712 32.3731 11.8486 32.7443 11.2951 33.0028C10.7449 33.2614 10.0787 33.3906 9.29652 33.3906H6.60689V31.6605H8.94851C9.35949 31.6605 9.70088 31.6042 9.97266 31.4915C10.2444 31.3788 10.4466 31.2098 10.5792 30.9844C10.7151 30.759 10.783 30.4789 10.783 30.1442C10.783 29.8061 10.7151 29.5211 10.5792 29.2891C10.4466 29.0571 10.2428 28.8814 9.96768 28.7621C9.6959 28.6394 9.35286 28.5781 8.93857 28.5781H7.48686V37H5.33416ZM10.8327 32.3665L13.3633 37H10.9869L8.51101 32.3665H10.8327Z" fill="#E6E0E9"/>
<rect x="37" y="11" width="10" height="14" fill="#E6E0E9"/>
<path d="M41.9981 23.2237C41.143 23.2204 40.4072 23.0099 39.7908 22.5923C39.1776 22.1747 38.7053 21.5698 38.3738 20.7777C38.0457 19.9856 37.8833 19.0327 37.8866 17.919C37.8866 16.8087 38.0507 15.8625 38.3788 15.0803C38.7103 14.2981 39.1826 13.7031 39.7957 13.2955C40.4122 12.8845 41.1463 12.679 41.9981 12.679C42.8499 12.679 43.5824 12.8845 44.1956 13.2955C44.8121 13.7064 45.286 14.303 45.6175 15.0852C45.9489 15.8641 46.113 16.8087 46.1096 17.919C46.1096 19.036 45.9439 19.9905 45.6125 20.7827C45.2844 21.5748 44.8137 22.1797 44.2006 22.5973C43.5874 23.0149 42.8533 23.2237 41.9981 23.2237ZM41.9981 21.4389C42.5815 21.4389 43.0471 21.1456 43.3952 20.5589C43.7432 19.9723 43.9155 19.0923 43.9122 17.919C43.9122 17.1468 43.8327 16.5038 43.6736 15.9901C43.5178 15.4763 43.2957 15.0902 43.0074 14.8317C42.7223 14.5732 42.3859 14.4439 41.9981 14.4439C41.4181 14.4439 40.9541 14.7339 40.6061 15.3139C40.2581 15.8939 40.0824 16.7623 40.0791 17.919C40.0791 18.7012 40.157 19.3542 40.3128 19.8778C40.4719 20.3982 40.6956 20.7893 40.9839 21.0511C41.2723 21.3097 41.6104 21.4389 41.9981 21.4389Z" fill="#141218"/>
<rect x="25" y="11" width="10" height="14" fill="#E6E0E9"/>
<path d="M29.9981 23.2237C29.143 23.2204 28.4072 23.0099 27.7907 22.5923C27.1776 22.1747 26.7053 21.5698 26.3738 20.7777C26.0457 19.9856 25.8833 19.0327 25.8866 17.919C25.8866 16.8087 26.0507 15.8625 26.3788 15.0803C26.7103 14.2981 27.1826 13.7031 27.7957 13.2955C28.4122 12.8845 29.1463 12.679 29.9981 12.679C30.8499 12.679 31.5824 12.8845 32.1956 13.2955C32.8121 13.7064 33.286 14.303 33.6175 15.0852C33.9489 15.8641 34.113 16.8087 34.1096 17.919C34.1096 19.036 33.9439 19.9905 33.6125 20.7827C33.2844 21.5748 32.8137 22.1797 32.2006 22.5973C31.5874 23.0149 30.8532 23.2237 29.9981 23.2237ZM29.9981 21.4389C30.5815 21.4389 31.0471 21.1456 31.3952 20.5589C31.7432 19.9723 31.9155 19.0923 31.9122 17.919C31.9122 17.1468 31.8327 16.5038 31.6736 15.9901C31.5178 15.4763 31.2957 15.0902 31.0074 14.8317C30.7223 14.5732 30.3859 14.4439 29.9981 14.4439C29.4181 14.4439 28.9541 14.7339 28.6061 15.3139C28.2581 15.8939 28.0824 16.7623 28.0791 17.919C28.0791 18.7012 28.157 19.3542 28.3128 19.8778C28.4719 20.3982 28.6956 20.7893 28.9839 21.0511C29.2723 21.3097 29.6104 21.4389 29.9981 21.4389Z" fill="#141218"/>
<rect x="13" y="11" width="10" height="14" fill="#E6E0E9"/>
<path d="M17.9981 23.2237C17.143 23.2204 16.4072 23.0099 15.7907 22.5923C15.1776 22.1747 14.7053 21.5698 14.3738 20.7777C14.0457 19.9856 13.8833 19.0327 13.8866 17.919C13.8866 16.8087 14.0507 15.8625 14.3788 15.0803C14.7103 14.2981 15.1826 13.7031 15.7957 13.2955C16.4122 12.8845 17.1463 12.679 17.9981 12.679C18.8499 12.679 19.5824 12.8845 20.1956 13.2955C20.8121 13.7064 21.286 14.303 21.6175 15.0852C21.9489 15.8641 22.113 16.8087 22.1096 17.919C22.1096 19.036 21.9439 19.9905 21.6125 20.7827C21.2844 21.5748 20.8137 22.1797 20.2006 22.5973C19.5874 23.0149 18.8532 23.2237 17.9981 23.2237ZM17.9981 21.4389C18.5815 21.4389 19.0471 21.1456 19.3952 20.5589C19.7432 19.9723 19.9155 19.0923 19.9122 17.919C19.9122 17.1468 19.8327 16.5038 19.6736 15.9901C19.5178 15.4763 19.2957 15.0902 19.0074 14.8317C18.7223 14.5732 18.3859 14.4439 17.9981 14.4439C17.4181 14.4439 16.9541 14.7339 16.6061 15.3139C16.2581 15.8939 16.0824 16.7623 16.0791 17.919C16.0791 18.7012 16.157 19.3542 16.3128 19.8778C16.4719 20.3982 16.6956 20.7893 16.9839 21.0511C17.2723 21.3097 17.6104 21.4389 17.9981 21.4389Z" fill="#141218"/>
<rect x="1" y="11" width="10" height="14" fill="#E6E0E9"/>
<path d="M5.99814 23.2237C5.14302 23.2204 4.40723 23.0099 3.79075 22.5923C3.17759 22.1747 2.70529 21.5698 2.37385 20.7777C2.04572 19.9856 1.88332 19.0327 1.88663 17.919C1.88663 16.8087 2.05069 15.8625 2.37882 15.0803C2.71026 14.2981 3.18256 13.7031 3.79572 13.2955C4.4122 12.8845 5.14634 12.679 5.99814 12.679C6.84993 12.679 7.58242 12.8845 8.19558 13.2955C8.81206 13.7064 9.28601 14.303 9.61745 15.0852C9.94889 15.8641 10.113 16.8087 10.1096 17.919C10.1096 19.036 9.94392 19.9905 9.61248 20.7827C9.28436 21.5748 8.81371 22.1797 8.20055 22.5973C7.58739 23.0149 6.85325 23.2237 5.99814 23.2237ZM5.99814 21.4389C6.58147 21.4389 7.04714 21.1456 7.39515 20.5589C7.74316 19.9723 7.91551 19.0923 7.9122 17.919C7.9122 17.1468 7.83265 16.5038 7.67356 15.9901C7.51779 15.4763 7.29572 15.0902 7.00737 14.8317C6.72233 14.5732 6.38592 14.4439 5.99814 14.4439C5.41812 14.4439 4.9541 14.7339 4.60609 15.3139C4.25808 15.8939 4.08242 16.7623 4.0791 17.919C4.0791 18.7012 4.15699 19.3542 4.31277 19.8778C4.47186 20.3982 4.69558 20.7893 4.98393 21.0511C5.27228 21.3097 5.61035 21.4389 5.99814 21.4389Z" fill="#141218"/>
</svg>
