<!--
  - Copyright (C) 2026  Giste
  -
  - This program is free software: you can redistribute it and/or modify
  - it under the terms of the GNU General Public License as published by
  - the Free Software Foundation, either version 3 of the License, or
  - (at your option) any later version.
  -
  - This program is distributed in the hope that it will be useful,
  - but WITHOUT ANY WARRANTY; without even the implied warranty of
  - MERCHANTABILITY or FITNESS FOR A PARTICULAR PURPOSE.  See the
  - GNU General Public License for more details.
  -
  - You should have received a copy of the GNU General Public License
  - along with this program.  If not, see <https://www.gnu.org/licenses/>.
  -->

<svg width="48" height="48" viewBox="0 0 48 48" fill="none" xmlns="http://www.w3.org/2000/svg">
<g clip-path="url(#clip0_20_2)">
<circle cx="24" cy="24" r="22" fill="white" stroke="#FF0000" stroke-width="4"/>
<path d="M12.3371 15.5455V33H9.69503V18.1875H9.59276L5.41662 20.9148V18.392L9.77173 15.5455H12.3371ZM21.9354 33.2898C20.5888 33.2841 19.4382 32.929 18.4837 32.2244C17.5291 31.5199 16.799 30.4943 16.2933 29.1477C15.7876 27.8011 15.5348 26.179 15.5348 24.2812C15.5348 22.3892 15.7876 20.7727 16.2933 19.4318C16.8047 18.0909 17.5376 17.0682 18.4922 16.3636C19.4524 15.6591 20.6001 15.3068 21.9354 15.3068C23.2706 15.3068 24.4155 15.6619 25.37 16.3722C26.3246 17.0767 27.0547 18.0994 27.5604 19.4403C28.0717 20.7756 28.3274 22.3892 28.3274 24.2812C28.3274 26.1847 28.0746 27.8097 27.5689 29.1562C27.0632 30.4972 26.3331 31.5227 25.3786 32.233C24.424 32.9375 23.2763 33.2898 21.9354 33.2898ZM21.9354 31.0142C23.1172 31.0142 24.0405 30.4375 24.7053 29.2841C25.3757 28.1307 25.7109 26.4631 25.7109 24.2812C25.7109 22.8324 25.5575 21.608 25.2507 20.608C24.9496 19.6023 24.5149 18.8409 23.9467 18.3239C23.3842 17.8011 22.7138 17.5398 21.9354 17.5398C20.7592 17.5398 19.8359 18.1193 19.1655 19.2784C18.495 20.4375 18.157 22.1051 18.1513 24.2812C18.1513 25.7358 18.3018 26.9659 18.603 27.9716C18.9098 28.9716 19.3445 29.7301 19.907 30.2472C20.4695 30.7585 21.1456 31.0142 21.9354 31.0142ZM36.2276 33.2898C34.881 33.2841 33.7304 32.929 32.7759 32.2244C31.8213 31.5199 31.0912 30.4943 30.5855 29.1477C30.0798 27.8011 29.827 26.179 29.827 24.2812C29.827 22.3892 30.0798 20.7727 30.5855 19.4318C31.0969 18.0909 31.8298 17.0682 32.7844 16.3636C33.7446 15.6591 34.8923 15.3068 36.2276 15.3068C37.5628 15.3068 38.7077 15.6619 39.6622 16.3722C40.6168 17.0767 41.3469 18.0994 41.8526 19.4403C42.3639 20.7756 42.6196 22.3892 42.6196 24.2812C42.6196 26.1847 42.3668 27.8097 41.8611 29.1562C41.3554 30.4972 40.6253 31.5227 39.6707 32.233C38.7162 32.9375 37.5685 33.2898 36.2276 33.2898ZM36.2276 31.0142C37.4094 31.0142 38.3327 30.4375 38.9974 29.2841C39.6679 28.1307 40.0031 26.4631 40.0031 24.2812C40.0031 22.8324 39.8497 21.608 39.5429 20.608C39.2418 19.6023 38.8071 18.8409 38.2389 18.3239C37.6764 17.8011 37.006 17.5398 36.2276 17.5398C35.0514 17.5398 34.1281 18.1193 33.4577 19.2784C32.7872 20.4375 32.4491 22.1051 32.4435 24.2812C32.4435 25.7358 32.594 26.9659 32.8952 27.9716C33.202 28.9716 33.6366 29.7301 34.1991 30.2472C34.7616 30.7585 35.4378 31.0142 36.2276 31.0142Z" fill="black"/>
</g>
<defs>
<clipPath id="clip0_20_2">
<rect width="48" height="48" fill="white"/>
</clipPath>
</defs>
</svg>
