<svg width="48" height="48" viewBox="0 0 48 48" fill="none" xmlns="http://www.w3.org/2000/svg">
<g clip-path="url(#clip0_20_2)">
<circle cx="24" cy="24" r="22" fill="white" stroke="#FF0000" stroke-width="4"/>
<path d="M12.3592 33L19.9786 17.9318V17.804H11.1661V15.5455H22.7058V17.8807L15.1121 33H12.3592ZM30.1713 33.2898C28.8247 33.2841 27.6741 32.929 26.7196 32.2244C25.7651 31.5199 25.0349 30.4943 24.5293 29.1477C24.0236 27.8011 23.7707 26.179 23.7707 24.2812C23.7707 22.3892 24.0236 20.7727 24.5293 19.4318C25.0406 18.0909 25.7736 17.0682 26.7281 16.3636C27.6884 15.6591 28.8361 15.3068 30.1713 15.3068C31.5065 15.3068 32.6514 15.6619 33.606 16.3722C34.5605 17.0767 35.2906 18.0994 35.7963 19.4403C36.3077 20.7756 36.5634 22.3892 36.5634 24.2812C36.5634 26.1847 36.3105 27.8097 35.8048 29.1562C35.2991 30.4972 34.569 31.5227 33.6145 32.233C32.6599 32.9375 31.5122 33.2898 30.1713 33.2898ZM30.1713 31.0142C31.3531 31.0142 32.2764 30.4375 32.9412 29.2841C33.6116 28.1307 33.9469 26.4631 33.9469 24.2812C33.9469 22.8324 33.7935 21.608 33.4866 20.608C33.1855 19.6023 32.7509 18.8409 32.1827 18.3239C31.6202 17.8011 30.9497 17.5398 30.1713 17.5398C28.9952 17.5398 28.0719 18.1193 27.4014 19.2784C26.731 20.4375 26.3929 22.1051 26.3872 24.2812C26.3872 25.7358 26.5378 26.9659 26.8389 27.9716C27.1457 28.9716 27.5804 29.7301 28.1429 30.2472C28.7054 30.7585 29.3815 31.0142 30.1713 31.0142Z" fill="black"/>
</g>
<defs>
<clipPath id="clip0_20_2">
<rect width="48" height="48" fill="white"/>
</clipPath>
</defs>
</svg>
