<svg width="48" height="48" viewBox="0 0 48 48" fill="none" xmlns="http://www.w3.org/2000/svg">
<g clip-path="url(#clip0_20_2)">
<circle cx="24" cy="24" r="22" fill="white" stroke="#FF0000" stroke-width="4"/>
<path d="M16.708 15.3068C17.4864 15.3125 18.2534 15.4545 19.0091 15.733C19.7648 16.0114 20.4466 16.4659 21.0545 17.0966C21.6682 17.7273 22.1568 18.5795 22.5205 19.6534C22.8898 20.7216 23.0773 22.0511 23.083 23.642C23.083 25.1705 22.9295 26.5312 22.6227 27.7244C22.3159 28.9119 21.8756 29.9148 21.3017 30.733C20.7335 31.5511 20.0432 32.1733 19.2307 32.5994C18.4182 33.0256 17.5034 33.2386 16.4864 33.2386C15.4466 33.2386 14.5233 33.0341 13.7165 32.625C12.9097 32.2159 12.2534 31.6506 11.7477 30.929C11.242 30.2017 10.9267 29.3665 10.8017 28.4233H13.4011C13.5716 29.1733 13.9182 29.7812 14.4409 30.2472C14.9693 30.7074 15.6511 30.9375 16.4864 30.9375C17.7648 30.9375 18.7619 30.3807 19.4778 29.267C20.1938 28.1477 20.5545 26.5852 20.5602 24.5795H20.4239C20.1284 25.0682 19.7591 25.4886 19.3159 25.8409C18.8784 26.1932 18.3869 26.4659 17.8415 26.6591C17.296 26.8523 16.7136 26.9489 16.0943 26.9489C15.0886 26.9489 14.1739 26.7017 13.35 26.2074C12.5261 25.7131 11.8699 25.0341 11.3813 24.1705C10.8926 23.3068 10.6483 22.321 10.6483 21.2131C10.6483 20.1108 10.8983 19.1108 11.3983 18.2131C11.904 17.3153 12.6085 16.6051 13.5119 16.0824C14.421 15.554 15.4864 15.2955 16.708 15.3068ZM16.7165 17.5227C16.0517 17.5227 15.4523 17.6875 14.9182 18.017C14.3898 18.3409 13.9722 18.7812 13.6653 19.3381C13.3585 19.8892 13.2051 20.5028 13.2051 21.179C13.2051 21.8551 13.3528 22.4687 13.6483 23.0199C13.9494 23.5653 14.3585 24 14.8756 24.3239C15.3983 24.642 15.9949 24.8011 16.6653 24.8011C17.1653 24.8011 17.6313 24.7045 18.0631 24.5114C18.4949 24.3182 18.8727 24.0511 19.1966 23.7102C19.5205 23.3636 19.7733 22.9716 19.9551 22.5341C20.1369 22.0966 20.2278 21.6364 20.2278 21.1534C20.2278 20.5114 20.0744 19.9148 19.7676 19.3636C19.4665 18.8125 19.0517 18.3693 18.5233 18.0341C17.9949 17.6932 17.3926 17.5227 16.7165 17.5227ZM31.0385 33.2898C29.6919 33.2841 28.5413 32.929 27.5868 32.2244C26.6322 31.5199 25.9021 30.4943 25.3965 29.1477C24.8908 27.8011 24.6379 26.179 24.6379 24.2812C24.6379 22.3892 24.8908 20.7727 25.3965 19.4318C25.9078 18.0909 26.6408 17.0682 27.5953 16.3636C28.5555 15.6591 29.7033 15.3068 31.0385 15.3068C32.3737 15.3068 33.5186 15.6619 34.4732 16.3722C35.4277 17.0767 36.1578 18.0994 36.6635 19.4403C37.1749 20.7756 37.4305 22.3892 37.4305 24.2812C37.4305 26.1847 37.1777 27.8097 36.672 29.1562C36.1663 30.4972 35.4362 31.5227 34.4817 32.233C33.5271 32.9375 32.3794 33.2898 31.0385 33.2898ZM31.0385 31.0142C32.2203 31.0142 33.1436 30.4375 33.8084 29.2841C34.4788 28.1307 34.8141 26.4631 34.8141 24.2812C34.8141 22.8324 34.6607 21.608 34.3538 20.608C34.0527 19.6023 33.618 18.8409 33.0499 18.3239C32.4874 17.8011 31.8169 17.5398 31.0385 17.5398C29.8624 17.5398 28.9391 18.1193 28.2686 19.2784C27.5982 20.4375 27.2601 22.1051 27.2544 24.2812C27.2544 25.7358 27.405 26.9659 27.7061 27.9716C28.0129 28.9716 28.4476 29.7301 29.0101 30.2472C29.5726 30.7585 30.2487 31.0142 31.0385 31.0142Z" fill="black"/>
</g>
<defs>
<clipPath id="clip0_20_2">
<rect width="48" height="48" fill="white"/>
</clipPath>
</defs>
</svg>
