<svg width="48" height="48" viewBox="0 0 48 48" fill="none" xmlns="http://www.w3.org/2000/svg">
<g clip-path="url(#clip0_20_2)">
<circle cx="24" cy="24" r="22" fill="white" stroke="#FF0000" stroke-width="4"/>
<path d="M16.8486 33.2386C15.627 33.2386 14.5474 33.0284 13.6099 32.608C12.6781 32.1875 11.948 31.608 11.4196 30.8693C10.8912 30.1307 10.6298 29.2898 10.6355 28.3466C10.6298 27.608 10.7804 26.929 11.0872 26.3097C11.3997 25.6847 11.823 25.1648 12.3571 24.75C12.8912 24.3295 13.4878 24.0625 14.1469 23.9489V23.8466C13.2776 23.6364 12.5815 23.1705 12.0588 22.4489C11.5361 21.7273 11.2776 20.8977 11.2832 19.9602C11.2776 19.0682 11.5134 18.2727 11.9906 17.5739C12.4736 16.8693 13.1355 16.3153 13.9764 15.9119C14.8173 15.5085 15.7747 15.3068 16.8486 15.3068C17.9111 15.3068 18.8599 15.5114 19.6952 15.9205C20.5361 16.3239 21.198 16.8778 21.681 17.5824C22.1639 18.2812 22.4082 19.0739 22.4139 19.9602C22.4082 20.8977 22.1412 21.7273 21.6128 22.4489C21.0844 23.1705 20.3969 23.6364 19.5503 23.8466V23.9489C20.2037 24.0625 20.7918 24.3295 21.3145 24.75C21.8429 25.1648 22.2634 25.6847 22.5759 26.3097C22.894 26.929 23.056 27.608 23.0616 28.3466C23.056 29.2898 22.7889 30.1307 22.2605 30.8693C21.7321 31.608 20.9991 32.1875 20.0616 32.608C19.1298 33.0284 18.0588 33.2386 16.8486 33.2386ZM16.8486 31.0824C17.5702 31.0824 18.1952 30.9631 18.7236 30.7244C19.252 30.4801 19.6611 30.142 19.9509 29.7102C20.2406 29.2727 20.3884 28.7614 20.394 28.1761C20.3884 27.5682 20.2293 27.0312 19.9168 26.5653C19.6099 26.0994 19.1923 25.733 18.6639 25.4659C18.1355 25.1989 17.5304 25.0653 16.8486 25.0653C16.1611 25.0653 15.5503 25.1989 15.0162 25.4659C14.4821 25.733 14.0616 26.0994 13.7548 26.5653C13.448 27.0312 13.2974 27.5682 13.3031 28.1761C13.2974 28.7614 13.4366 29.2727 13.7207 29.7102C14.0105 30.142 14.4224 30.4801 14.9565 30.7244C15.4906 30.9631 16.1213 31.0824 16.8486 31.0824ZM16.8486 22.9602C17.4281 22.9602 17.9423 22.8437 18.3912 22.6108C18.8401 22.3778 19.1923 22.054 19.448 21.6392C19.7094 21.2244 19.8429 20.7386 19.8486 20.1818C19.8429 19.6364 19.7122 19.1591 19.4565 18.75C19.2065 18.3409 18.8571 18.0256 18.4082 17.804C17.9594 17.5767 17.4395 17.4631 16.8486 17.4631C16.2463 17.4631 15.7179 17.5767 15.2634 17.804C14.8145 18.0256 14.4651 18.3409 14.2151 18.75C13.9651 19.1591 13.8429 19.6364 13.8486 20.1818C13.8429 20.7386 13.9679 21.2244 14.2236 21.6392C14.4793 22.054 14.8315 22.3778 15.2804 22.6108C15.7349 22.8437 16.2577 22.9602 16.8486 22.9602ZM30.9916 33.2898C29.645 33.2841 28.4945 32.929 27.5399 32.2244C26.5854 31.5199 25.8553 30.4943 25.3496 29.1477C24.8439 27.8011 24.5911 26.179 24.5911 24.2812C24.5911 22.3892 24.8439 20.7727 25.3496 19.4318C25.8609 18.0909 26.5939 17.0682 27.5484 16.3636C28.5087 15.6591 29.6564 15.3068 30.9916 15.3068C32.3268 15.3068 33.4717 15.6619 34.4263 16.3722C35.3808 17.0767 36.1109 18.0994 36.6166 19.4403C37.128 20.7756 37.3837 22.3892 37.3837 24.2812C37.3837 26.1847 37.1308 27.8097 36.6251 29.1562C36.1195 30.4972 35.3893 31.5227 34.4348 32.233C33.4803 32.9375 32.3325 33.2898 30.9916 33.2898ZM30.9916 31.0142C32.1734 31.0142 33.0967 30.4375 33.7615 29.2841C34.432 28.1307 34.7672 26.4631 34.7672 24.2812C34.7672 22.8324 34.6138 21.608 34.307 20.608C34.0058 19.6023 33.5712 18.8409 33.003 18.3239C32.4405 17.8011 31.77 17.5398 30.9916 17.5398C29.8155 17.5398 28.8922 18.1193 28.2217 19.2784C27.5513 20.4375 27.2132 22.1051 27.2075 24.2812C27.2075 25.7358 27.3581 26.9659 27.6592 27.9716C27.9661 28.9716 28.4007 29.7301 28.9632 30.2472C29.5257 30.7585 30.2018 31.0142 30.9916 31.0142Z" fill="black"/>
</g>
<defs>
<clipPath id="clip0_20_2">
<rect width="48" height="48" fill="white"/>
</clipPath>
</defs>
</svg>
