<svg width="48" height="48" viewBox="0 0 48 48" fill="none" xmlns="http://www.w3.org/2000/svg">
<g clip-path="url(#clip0_20_2)">
<circle cx="24" cy="24" r="22" fill="white" stroke="#FF0000" stroke-width="4"/>
<path d="M12.2316 15.5455V33H9.58956V18.1875H9.48729L5.31115 20.9148V18.392L9.66627 15.5455H12.2316ZM15.3867 29.5909V27.4602L22.9293 15.5455H24.6083V18.6818H23.543L18.1481 27.2216V27.358H28.4862V29.5909H15.3867ZM23.6623 33V28.9432L23.6793 27.9716V15.5455H26.1765V33H23.6623ZM36.333 33.2898C34.9864 33.2841 33.8359 32.929 32.8813 32.2244C31.9268 31.5199 31.1967 30.4943 30.691 29.1477C30.1853 27.8011 29.9325 26.179 29.9325 24.2812C29.9325 22.3892 30.1853 20.7727 30.691 19.4318C31.2023 18.0909 31.9353 17.0682 32.8898 16.3636C33.8501 15.6591 34.9978 15.3068 36.333 15.3068C37.6683 15.3068 38.8131 15.6619 39.7677 16.3722C40.7222 17.0767 41.4523 18.0994 41.958 19.4403C42.4694 20.7756 42.7251 22.3892 42.7251 24.2812C42.7251 26.1847 42.4722 27.8097 41.9666 29.1562C41.4609 30.4972 40.7308 31.5227 39.7762 32.233C38.8217 32.9375 37.6739 33.2898 36.333 33.2898ZM36.333 31.0142C37.5148 31.0142 38.4381 30.4375 39.1029 29.2841C39.7734 28.1307 40.1086 26.4631 40.1086 24.2812C40.1086 22.8324 39.9552 21.608 39.6484 20.608C39.3472 19.6023 38.9126 18.8409 38.3444 18.3239C37.7819 17.8011 37.1114 17.5398 36.333 17.5398C35.1569 17.5398 34.2336 18.1193 33.5631 19.2784C32.8927 20.4375 32.5546 22.1051 32.5489 24.2812C32.5489 25.7358 32.6995 26.9659 33.0006 27.9716C33.3075 28.9716 33.7421 29.7301 34.3046 30.2472C34.8671 30.7585 35.5433 31.0142 36.333 31.0142Z" fill="black"/>
</g>
<defs>
<clipPath id="clip0_20_2">
<rect width="48" height="48" fill="white"/>
</clipPath>
</defs>
</svg>
