<svg width="48" height="48" viewBox="0 0 48 48" fill="none" xmlns="http://www.w3.org/2000/svg">
<g clip-path="url(#clip0_20_2)">
<circle cx="24" cy="24" r="22" fill="white" stroke="#FF0000" stroke-width="4"/>
<path d="M11.1735 33V31.0909L17.0798 24.9716C17.7104 24.3068 18.2303 23.7244 18.6394 23.2244C19.0542 22.7187 19.3639 22.2386 19.5684 21.7841C19.7729 21.3295 19.8752 20.8466 19.8752 20.3352C19.8752 19.7557 19.7389 19.2557 19.4661 18.8352C19.1934 18.4091 18.8212 18.0824 18.3496 17.8551C17.8781 17.6222 17.3468 17.5057 16.7559 17.5057C16.1309 17.5057 15.5854 17.6335 15.1195 17.8892C14.6536 18.1449 14.2957 18.5057 14.0457 18.9716C13.7957 19.4375 13.6707 19.983 13.6707 20.608H11.1565C11.1565 19.5455 11.4008 18.6165 11.8894 17.821C12.3781 17.0256 13.0485 16.4091 13.9008 15.9716C14.7531 15.5284 15.7218 15.3068 16.807 15.3068C17.9036 15.3068 18.8695 15.5256 19.7048 15.9631C20.5457 16.3949 21.2019 16.9858 21.6735 17.7358C22.1451 18.4801 22.3809 19.321 22.3809 20.2585C22.3809 20.9062 22.2587 21.5398 22.0144 22.1591C21.7758 22.7784 21.3582 23.4687 20.7616 24.2301C20.165 24.9858 19.3354 25.9034 18.2729 26.983L14.8042 30.6136V30.7415H22.6621V33H11.1735ZM30.769 33.2898C29.4224 33.2841 28.2718 32.929 27.3173 32.2244C26.3627 31.5199 25.6326 30.4943 25.1269 29.1477C24.6212 27.8011 24.3684 26.179 24.3684 24.2812C24.3684 22.3892 24.6212 20.7727 25.1269 19.4318C25.6383 18.0909 26.3712 17.0682 27.3258 16.3636C28.286 15.6591 29.4337 15.3068 30.769 15.3068C32.1042 15.3068 33.2491 15.6619 34.2036 16.3722C35.1582 17.0767 35.8883 18.0994 36.394 19.4403C36.9053 20.7756 37.161 22.3892 37.161 24.2812C37.161 26.1847 36.9082 27.8097 36.4025 29.1562C35.8968 30.4972 35.1667 31.5227 34.2121 32.233C33.2576 32.9375 32.1099 33.2898 30.769 33.2898ZM30.769 31.0142C31.9508 31.0142 32.8741 30.4375 33.5389 29.2841C34.2093 28.1307 34.5445 26.4631 34.5445 24.2812C34.5445 22.8324 34.3911 21.608 34.0843 20.608C33.7832 19.6023 33.3485 18.8409 32.7803 18.3239C32.2178 17.8011 31.5474 17.5398 30.769 17.5398C29.5928 17.5398 28.6695 18.1193 27.9991 19.2784C27.3286 20.4375 26.9906 22.1051 26.9849 24.2812C26.9849 25.7358 27.1354 26.9659 27.4366 27.9716C27.7434 28.9716 28.1781 29.7301 28.7406 30.2472C29.3031 30.7585 29.9792 31.0142 30.769 31.0142Z" fill="black"/>
</g>
<defs>
<clipPath id="clip0_20_2">
<rect width="48" height="48" fill="white"/>
</clipPath>
</defs>
</svg>
