<!--
  - Copyright (C) 2026  Giste
  -
  - This program is free software: you can redistribute it and/or modify
  - it under the terms of the GNU General Public License as published by
  - the Free Software Foundation, either version 3 of the License, or
  - (at your option) any later version.
  -
  - This program is distributed in the hope that it will be useful,
  - but WITHOUT ANY WARRANTY; without even the implied warranty of
  - MERCHANTABILITY or FITNESS FOR A PARTICULAR PURPOSE.  See the
  - GNU General Public License for more details.
  -
  - You should have received a copy of the GNU General Public License
  - along with this program.  If not, see <https://www.gnu.org/licenses/>.
  -->

<svg width="48" height="48" viewBox="0 0 48 48" fill="none" xmlns="http://www.w3.org/2000/svg">
<g clip-path="url(#clip0_20_2)">
<circle cx="24" cy="24" r="22" fill="white" stroke="#FF0000" stroke-width="4"/>
<path d="M12.3488 15.5455V33H9.70675V18.1875H9.60448L5.42834 20.9148V18.392L9.78345 15.5455H12.3488ZM21.9471 33.2386C20.7766 33.2386 19.7312 33.0369 18.8107 32.6335C17.896 32.2301 17.1715 31.6705 16.6374 30.9545C16.109 30.233 15.8249 29.3977 15.7852 28.4489H18.4613C18.4954 28.9659 18.6687 29.4148 18.9812 29.7955C19.2994 30.1705 19.7141 30.4602 20.2255 30.6648C20.7369 30.8693 21.305 30.9716 21.93 30.9716C22.6175 30.9716 23.2255 30.8523 23.7539 30.6136C24.288 30.375 24.7056 30.0426 25.0067 29.6165C25.3079 29.1847 25.4585 28.6875 25.4585 28.125C25.4585 27.5398 25.3079 27.0256 25.0067 26.5824C24.7113 26.1335 24.2766 25.7812 23.7028 25.5256C23.1346 25.2699 22.4471 25.142 21.6403 25.142H20.1658V22.9943H21.6403C22.288 22.9943 22.8562 22.8778 23.3448 22.6449C23.8391 22.4119 24.2255 22.0881 24.5039 21.6733C24.7823 21.2528 24.9215 20.7614 24.9215 20.1989C24.9215 19.6591 24.7994 19.1903 24.555 18.7926C24.3164 18.3892 23.9755 18.0739 23.5323 17.8466C23.0948 17.6193 22.5778 17.5057 21.9812 17.5057C21.413 17.5057 20.8817 17.6108 20.3874 17.821C19.8988 18.0256 19.5011 18.321 19.1942 18.7074C18.8874 19.0881 18.7227 19.5455 18.6999 20.0795H16.1516C16.18 19.1364 16.4585 18.3068 16.9869 17.5909C17.521 16.875 18.2255 16.3153 19.1005 15.9119C19.9755 15.5085 20.9471 15.3068 22.0153 15.3068C23.1346 15.3068 24.1005 15.5256 24.913 15.9631C25.7312 16.3949 26.3619 16.9716 26.805 17.6932C27.2539 18.4148 27.4755 19.2045 27.4698 20.0625C27.4755 21.0398 27.2028 21.8693 26.6516 22.5511C26.1062 23.233 25.3789 23.6903 24.4698 23.9233V24.0597C25.6289 24.2358 26.5266 24.696 27.163 25.4403C27.805 26.1847 28.1232 27.108 28.1175 28.2102C28.1232 29.1705 27.8562 30.0312 27.3164 30.7926C26.7823 31.554 26.0522 32.1534 25.1261 32.5909C24.1999 33.0227 23.1403 33.2386 21.9471 33.2386ZM36.2158 33.2898C34.8692 33.2841 33.7187 32.929 32.7641 32.2244C31.8096 31.5199 31.0795 30.4943 30.5738 29.1477C30.0681 27.8011 29.8153 26.179 29.8153 24.2812C29.8153 22.3892 30.0681 20.7727 30.5738 19.4318C31.0852 18.0909 31.8181 17.0682 32.7727 16.3636C33.7329 15.6591 34.8806 15.3068 36.2158 15.3068C37.5511 15.3068 38.696 15.6619 39.6505 16.3722C40.605 17.0767 41.3352 18.0994 41.8408 19.4403C42.3522 20.7756 42.6079 22.3892 42.6079 24.2812C42.6079 26.1847 42.355 27.8097 41.8494 29.1562C41.3437 30.4972 40.6136 31.5227 39.659 32.233C38.7045 32.9375 37.5567 33.2898 36.2158 33.2898ZM36.2158 31.0142C37.3977 31.0142 38.321 30.4375 38.9857 29.2841C39.6562 28.1307 39.9914 26.4631 39.9914 24.2812C39.9914 22.8324 39.838 21.608 39.5312 20.608C39.23 19.6023 38.7954 18.8409 38.2272 18.3239C37.6647 17.8011 36.9942 17.5398 36.2158 17.5398C35.0397 17.5398 34.1164 18.1193 33.446 19.2784C32.7755 20.4375 32.4374 22.1051 32.4317 24.2812C32.4317 25.7358 32.5823 26.9659 32.8835 27.9716C33.1903 28.9716 33.6249 29.7301 34.1874 30.2472C34.7499 30.7585 35.4261 31.0142 36.2158 31.0142Z" fill="black"/>
</g>
<defs>
<clipPath id="clip0_20_2">
<rect width="48" height="48" fill="white"/>
</clipPath>
</defs>
</svg>
