<!--
  - Copyright (C) 2026  Giste
  -
  - This program is free software: you can redistribute it and/or modify
  - it under the terms of the GNU General Public License as published by
  - the Free Software Foundation, either version 3 of the License, or
  - (at your option) any later version.
  -
  - This program is distributed in the hope that it will be useful,
  - but WITHOUT ANY WARRANTY; without even the implied warranty of
  - MERCHANTABILITY or FITNESS FOR A PARTICULAR PURPOSE.  See the
  - GNU General Public License for more details.
  -
  - You should have received a copy of the GNU General Public License
  - along with this program.  If not, see <https://www.gnu.org/licenses/>.
  -->

<svg width="48" height="48" viewBox="0 0 48 48" fill="none" xmlns="http://www.w3.org/2000/svg">
<g clip-path="url(#clip0_20_2)">
<circle cx="24" cy="24" r="22" fill="white" stroke="#FF0000" stroke-width="4"/>
<path d="M12.6418 15.5455V33H9.99972V18.1875H9.89744L5.72131 20.9148V18.392L10.0764 15.5455H12.6418ZM21.9247 33.2386C20.8565 33.2386 19.8963 33.0341 19.044 32.625C18.1974 32.2102 17.5213 31.642 17.0156 30.9205C16.5099 30.1989 16.2401 29.375 16.206 28.4489H18.7628C18.8253 29.1989 19.1577 29.8153 19.7599 30.2983C20.3622 30.7812 21.0838 31.0227 21.9247 31.0227C22.5952 31.0227 23.1889 30.8693 23.706 30.5625C24.2287 30.25 24.6378 29.821 24.9332 29.2756C25.2344 28.7301 25.3849 28.108 25.3849 27.4091C25.3849 26.6989 25.2315 26.0653 24.9247 25.5085C24.6179 24.9517 24.1946 24.5142 23.6548 24.196C23.1207 23.8778 22.5071 23.7159 21.8139 23.7102C21.2855 23.7102 20.7543 23.8011 20.2202 23.983C19.6861 24.1648 19.2543 24.4034 18.9247 24.6989L16.5128 24.3409L17.4929 15.5455H27.0895V17.804H19.6832L19.1293 22.6875H19.2315C19.5724 22.358 20.0241 22.0824 20.5866 21.8608C21.1548 21.6392 21.7628 21.5284 22.4105 21.5284C23.473 21.5284 24.419 21.7812 25.2486 22.2869C26.0838 22.7926 26.7401 23.483 27.2173 24.358C27.7003 25.2273 27.9389 26.2273 27.9332 27.358C27.9389 28.4886 27.6832 29.4972 27.1662 30.3835C26.6548 31.2699 25.9446 31.9687 25.0355 32.4801C24.1321 32.9858 23.0952 33.2386 21.9247 33.2386ZM35.9229 33.2898C34.5763 33.2841 33.4257 32.929 32.4712 32.2244C31.5166 31.5199 30.7865 30.4943 30.2808 29.1477C29.7751 27.8011 29.5223 26.179 29.5223 24.2812C29.5223 22.3892 29.7751 20.7727 30.2808 19.4318C30.7922 18.0909 31.5251 17.0682 32.4797 16.3636C33.4399 15.6591 34.5876 15.3068 35.9229 15.3068C37.2581 15.3068 38.403 15.6619 39.3575 16.3722C40.3121 17.0767 41.0422 18.0994 41.5479 19.4403C42.0592 20.7756 42.3149 22.3892 42.3149 24.2812C42.3149 26.1847 42.0621 27.8097 41.5564 29.1562C41.0507 30.4972 40.3206 31.5227 39.3661 32.233C38.4115 32.9375 37.2638 33.2898 35.9229 33.2898ZM35.9229 31.0142C37.1047 31.0142 38.028 30.4375 38.6928 29.2841C39.3632 28.1307 39.6984 26.4631 39.6984 24.2812C39.6984 22.8324 39.545 21.608 39.2382 20.608C38.9371 19.6023 38.5024 18.8409 37.9342 18.3239C37.3717 17.8011 36.7013 17.5398 35.9229 17.5398C34.7467 17.5398 33.8234 18.1193 33.153 19.2784C32.4825 20.4375 32.1445 22.1051 32.1388 24.2812C32.1388 25.7358 32.2893 26.9659 32.5905 27.9716C32.8973 28.9716 33.332 29.7301 33.8945 30.2472C34.457 30.7585 35.1331 31.0142 35.9229 31.0142Z" fill="black"/>
</g>
<defs>
<clipPath id="clip0_20_2">
<rect width="48" height="48" fill="white"/>
</clipPath>
</defs>
</svg>
