<svg width="48" height="48" viewBox="0 0 48 48" fill="none" xmlns="http://www.w3.org/2000/svg">
<g clip-path="url(#clip0_20_2)">
<circle cx="24" cy="24" r="22" fill="white" stroke="#FF0000" stroke-width="4"/>
<path d="M16.9977 33.2386C16.2193 33.2273 15.4523 33.0852 14.6966 32.8125C13.9466 32.5398 13.2648 32.0852 12.6511 31.4489C12.0375 30.8125 11.546 29.9574 11.1767 28.8835C10.8131 27.8097 10.6313 26.4687 10.6313 24.8608C10.6313 23.3381 10.7818 21.9858 11.083 20.804C11.3898 19.6222 11.8301 18.625 12.404 17.8125C12.9778 16.9943 13.671 16.3722 14.4835 15.946C15.296 15.5199 16.208 15.3068 17.2193 15.3068C18.2591 15.3068 19.1824 15.5114 19.9892 15.9205C20.796 16.3295 21.4494 16.8949 21.9494 17.6165C22.4551 18.3381 22.7761 19.1591 22.9125 20.0795H20.3131C20.1369 19.3523 19.7875 18.7585 19.2648 18.2983C18.742 17.8381 18.0602 17.608 17.2193 17.608C15.9409 17.608 14.9438 18.1648 14.2278 19.2784C13.5176 20.392 13.1597 21.9403 13.154 23.9233H13.2818C13.583 23.429 13.9523 23.0085 14.3898 22.6619C14.833 22.3097 15.3273 22.0398 15.8727 21.8523C16.4239 21.6591 17.0034 21.5625 17.6114 21.5625C18.6227 21.5625 19.5375 21.8097 20.3557 22.304C21.1795 22.7926 21.8358 23.4687 22.3244 24.3324C22.8131 25.196 23.0574 26.1847 23.0574 27.2983C23.0574 28.4119 22.8045 29.4205 22.2989 30.3239C21.7989 31.2273 21.0943 31.9432 20.1852 32.4716C19.2761 32.9943 18.2136 33.25 16.9977 33.2386ZM16.9892 31.0227C17.6597 31.0227 18.2591 30.858 18.7875 30.5284C19.3159 30.1989 19.7335 29.7557 20.0403 29.1989C20.3472 28.642 20.5006 28.0199 20.5006 27.3324C20.5006 26.6619 20.35 26.0511 20.0489 25.5C19.7534 24.9489 19.3443 24.5114 18.8216 24.1875C18.3045 23.8636 17.7136 23.7017 17.0489 23.7017C16.5432 23.7017 16.0744 23.7983 15.6426 23.9915C15.2165 24.1847 14.8415 24.4517 14.5176 24.7926C14.1938 25.1335 13.9381 25.5256 13.7506 25.9688C13.5688 26.4062 13.4778 26.8693 13.4778 27.358C13.4778 28.0114 13.6284 28.6165 13.9295 29.1733C14.2364 29.7301 14.654 30.179 15.1824 30.5199C15.7165 30.8551 16.3188 31.0227 16.9892 31.0227ZM31.0385 33.2898C29.6919 33.2841 28.5413 32.929 27.5868 32.2244C26.6322 31.5199 25.9021 30.4943 25.3965 29.1477C24.8908 27.8011 24.6379 26.179 24.6379 24.2812C24.6379 22.3892 24.8908 20.7727 25.3965 19.4318C25.9078 18.0909 26.6408 17.0682 27.5953 16.3636C28.5555 15.6591 29.7033 15.3068 31.0385 15.3068C32.3737 15.3068 33.5186 15.6619 34.4732 16.3722C35.4277 17.0767 36.1578 18.0994 36.6635 19.4403C37.1749 20.7756 37.4305 22.3892 37.4305 24.2812C37.4305 26.1847 37.1777 27.8097 36.672 29.1562C36.1663 30.4972 35.4362 31.5227 34.4817 32.233C33.5271 32.9375 32.3794 33.2898 31.0385 33.2898ZM31.0385 31.0142C32.2203 31.0142 33.1436 30.4375 33.8084 29.2841C34.4788 28.1307 34.8141 26.4631 34.8141 24.2812C34.8141 22.8324 34.6607 21.608 34.3538 20.608C34.0527 19.6023 33.618 18.8409 33.0499 18.3239C32.4874 17.8011 31.8169 17.5398 31.0385 17.5398C29.8624 17.5398 28.9391 18.1193 28.2686 19.2784C27.5982 20.4375 27.2601 22.1051 27.2544 24.2812C27.2544 25.7358 27.405 26.9659 27.7061 27.9716C28.0129 28.9716 28.4476 29.7301 29.0101 30.2472C29.5726 30.7585 30.2487 31.0142 31.0385 31.0142Z" fill="black"/>
</g>
<defs>
<clipPath id="clip0_20_2">
<rect width="48" height="48" fill="white"/>
</clipPath>
</defs>
</svg>
