<!--
  - Copyright (C) 2026  Giste
  -
  - This program is free software: you can redistribute it and/or modify
  - it under the terms of the GNU General Public License as published by
  - the Free Software Foundation, either version 3 of the License, or
  - (at your option) any later version.
  -
  - This program is distributed in the hope that it will be useful,
  - but WITHOUT ANY WARRANTY; without even the implied warranty of
  - MERCHANTABILITY or FITNESS FOR A PARTICULAR PURPOSE.  See the
  - GNU General Public License for more details.
  -
  - You should have received a copy of the GNU General Public License
  - along with this program.  If not, see <https://www.gnu.org/licenses/>.
  -->

<svg width="48" height="48" viewBox="0 0 48 48" fill="none" xmlns="http://www.w3.org/2000/svg">
<g clip-path="url(#clip0_20_2)">
<circle cx="24" cy="24" r="22" fill="white" stroke="#FF0000" stroke-width="4"/>
<path d="M10.3148 29.5909V27.4602L17.8575 15.5455H19.5364V18.6818H18.4711L13.0762 27.2216V27.358H23.4143V29.5909H10.3148ZM18.5904 33V28.9432L18.6075 27.9716V15.5455H21.1046V33H18.5904ZM31.2612 33.2898C29.9146 33.2841 28.764 32.929 27.8094 32.2244C26.8549 31.5199 26.1248 30.4943 25.6191 29.1477C25.1134 27.8011 24.8606 26.179 24.8606 24.2812C24.8606 22.3892 25.1134 20.7727 25.6191 19.4318C26.1305 18.0909 26.8634 17.0682 27.818 16.3636C28.7782 15.6591 29.9259 15.3068 31.2612 15.3068C32.5964 15.3068 33.7413 15.6619 34.6958 16.3722C35.6504 17.0767 36.3805 18.0994 36.8862 19.4403C37.3975 20.7756 37.6532 22.3892 37.6532 24.2812C37.6532 26.1847 37.4004 27.8097 36.8947 29.1562C36.389 30.4972 35.6589 31.5227 34.7043 32.233C33.7498 32.9375 32.6021 33.2898 31.2612 33.2898ZM31.2612 31.0142C32.443 31.0142 33.3663 30.4375 34.031 29.2841C34.7015 28.1307 35.0367 26.4631 35.0367 24.2812C35.0367 22.8324 34.8833 21.608 34.5765 20.608C34.2754 19.6023 33.8407 18.8409 33.2725 18.3239C32.71 17.8011 32.0396 17.5398 31.2612 17.5398C30.085 17.5398 29.1617 18.1193 28.4913 19.2784C27.8208 20.4375 27.4827 22.1051 27.4771 24.2812C27.4771 25.7358 27.6276 26.9659 27.9288 27.9716C28.2356 28.9716 28.6702 29.7301 29.2327 30.2472C29.7952 30.7585 30.4714 31.0142 31.2612 31.0142Z" fill="black"/>
</g>
<defs>
<clipPath id="clip0_20_2">
<rect width="48" height="48" fill="white"/>
</clipPath>
</defs>
</svg>
