<svg width="48" height="48" viewBox="0 0 48 48" fill="none" xmlns="http://www.w3.org/2000/svg">
<g clip-path="url(#clip0_20_2)">
<circle cx="24" cy="24" r="22" fill="white" stroke="#FF0000" stroke-width="4"/>
<path d="M16.8752 33.2386C15.7048 33.2386 14.6593 33.0369 13.7388 32.6335C12.8241 32.2301 12.0996 31.6705 11.5656 30.9545C11.0371 30.233 10.7531 29.3977 10.7133 28.4489H13.3894C13.4235 28.9659 13.5968 29.4148 13.9093 29.7955C14.2275 30.1705 14.6423 30.4602 15.1536 30.6648C15.665 30.8693 16.2332 30.9716 16.8582 30.9716C17.5457 30.9716 18.1536 30.8523 18.682 30.6136C19.2161 30.375 19.6337 30.0426 19.9349 29.6165C20.236 29.1847 20.3866 28.6875 20.3866 28.125C20.3866 27.5398 20.236 27.0256 19.9349 26.5824C19.6394 26.1335 19.2048 25.7812 18.6309 25.5256C18.0627 25.2699 17.3752 25.142 16.5684 25.142H15.094V22.9943H16.5684C17.2161 22.9943 17.7843 22.8778 18.2729 22.6449C18.7673 22.4119 19.1536 22.0881 19.432 21.6733C19.7104 21.2528 19.8496 20.7614 19.8496 20.1989C19.8496 19.6591 19.7275 19.1903 19.4832 18.7926C19.2445 18.3892 18.9036 18.0739 18.4604 17.8466C18.0229 17.6193 17.5059 17.5057 16.9093 17.5057C16.3411 17.5057 15.8099 17.6108 15.3156 17.821C14.8269 18.0256 14.4292 18.321 14.1224 18.7074C13.8156 19.0881 13.6508 19.5455 13.6281 20.0795H11.0798C11.1082 19.1364 11.3866 18.3068 11.915 17.5909C12.4491 16.875 13.1536 16.3153 14.0286 15.9119C14.9036 15.5085 15.8752 15.3068 16.9434 15.3068C18.0627 15.3068 19.0286 15.5256 19.8411 15.9631C20.6593 16.3949 21.29 16.9716 21.7332 17.6932C22.182 18.4148 22.4036 19.2045 22.3979 20.0625C22.4036 21.0398 22.1309 21.8693 21.5798 22.5511C21.0343 23.233 20.307 23.6903 19.3979 23.9233V24.0597C20.557 24.2358 21.4548 24.696 22.0911 25.4403C22.7332 26.1847 23.0514 27.108 23.0457 28.2102C23.0514 29.1705 22.7843 30.0312 22.2445 30.7926C21.7104 31.554 20.9803 32.1534 20.0542 32.5909C19.1281 33.0227 18.0684 33.2386 16.8752 33.2386ZM31.144 33.2898C29.7974 33.2841 28.6468 32.929 27.6923 32.2244C26.7377 31.5199 26.0076 30.4943 25.5019 29.1477C24.9962 27.8011 24.7434 26.179 24.7434 24.2812C24.7434 22.3892 24.9962 20.7727 25.5019 19.4318C26.0133 18.0909 26.7462 17.0682 27.7008 16.3636C28.661 15.6591 29.8087 15.3068 31.144 15.3068C32.4792 15.3068 33.6241 15.6619 34.5786 16.3722C35.5332 17.0767 36.2633 18.0994 36.769 19.4403C37.2803 20.7756 37.536 22.3892 37.536 24.2812C37.536 26.1847 37.2832 27.8097 36.7775 29.1562C36.2718 30.4972 35.5417 31.5227 34.5871 32.233C33.6326 32.9375 32.4849 33.2898 31.144 33.2898ZM31.144 31.0142C32.3258 31.0142 33.2491 30.4375 33.9139 29.2841C34.5843 28.1307 34.9195 26.4631 34.9195 24.2812C34.9195 22.8324 34.7661 21.608 34.4593 20.608C34.1582 19.6023 33.7235 18.8409 33.1553 18.3239C32.5928 17.8011 31.9224 17.5398 31.144 17.5398C29.9678 17.5398 29.0445 18.1193 28.3741 19.2784C27.7036 20.4375 27.3656 22.1051 27.3599 24.2812C27.3599 25.7358 27.5104 26.9659 27.8116 27.9716C28.1184 28.9716 28.5531 29.7301 29.1156 30.2472C29.6781 30.7585 30.3542 31.0142 31.144 31.0142Z" fill="black"/>
</g>
<defs>
<clipPath id="clip0_20_2">
<rect width="48" height="48" fill="white"/>
</clipPath>
</defs>
</svg>
