<!--
  - Copyright (C) 2026  Giste
  -
  - This program is free software: you can redistribute it and/or modify
  - it under the terms of the GNU General Public License as published by
  - the Free Software Foundation, either version 3 of the License, or
  - (at your option) any later version.
  -
  - This program is distributed in the hope that it will be useful,
  - but WITHOUT ANY WARRANTY; without even the implied warranty of
  - MERCHANTABILITY or FITNESS FOR A PARTICULAR PURPOSE.  See the
  - GNU General Public License for more details.
  -
  - You should have received a copy of the GNU General Public License
  - along with this program.  If not, see <https://www.gnu.org/licenses/>.
  -->

<svg width="48" height="48" viewBox="0 0 48 48" fill="none" xmlns="http://www.w3.org/2000/svg">
<g clip-path="url(#clip0_20_2)">
<circle cx="24" cy="24" r="22" fill="white" stroke="#FF0000" stroke-width="4"/>
<path d="M14.4113 15.5455V33H11.7692V18.1875H11.667L7.49084 20.9148V18.392L11.846 15.5455H14.4113ZM24.555 15.5455V33H21.913V18.1875H21.8107L17.6346 20.9148V18.392L21.9897 15.5455H24.555ZM34.1533 33.2898C32.8067 33.2841 31.6562 32.929 30.7016 32.2244C29.7471 31.5199 29.017 30.4943 28.5113 29.1477C28.0056 27.8011 27.7528 26.179 27.7528 24.2812C27.7528 22.3892 28.0056 20.7727 28.5113 19.4318C29.0227 18.0909 29.7556 17.0682 30.7102 16.3636C31.6704 15.6591 32.8181 15.3068 34.1533 15.3068C35.4886 15.3068 36.6335 15.6619 37.588 16.3722C38.5425 17.0767 39.2727 18.0994 39.7783 19.4403C40.2897 20.7756 40.5454 22.3892 40.5454 24.2812C40.5454 26.1847 40.2925 27.8097 39.7869 29.1562C39.2812 30.4972 38.5511 31.5227 37.5965 32.233C36.642 32.9375 35.4942 33.2898 34.1533 33.2898ZM34.1533 31.0142C35.3352 31.0142 36.2585 30.4375 36.9232 29.2841C37.5937 28.1307 37.9289 26.4631 37.9289 24.2812C37.9289 22.8324 37.7755 21.608 37.4687 20.608C37.1675 19.6023 36.7329 18.8409 36.1647 18.3239C35.6022 17.8011 34.9317 17.5398 34.1533 17.5398C32.9772 17.5398 32.0539 18.1193 31.3835 19.2784C30.713 20.4375 30.3749 22.1051 30.3692 24.2812C30.3692 25.7358 30.5198 26.9659 30.821 27.9716C31.1278 28.9716 31.5624 29.7301 32.1249 30.2472C32.6874 30.7585 33.3636 31.0142 34.1533 31.0142Z" fill="black"/>
</g>
<defs>
<clipPath id="clip0_20_2">
<rect width="48" height="48" fill="white"/>
</clipPath>
</defs>
</svg>
