<!--
  - Copyright (C) 2026  Giste
  -
  - This program is free software: you can redistribute it and/or modify
  - it under the terms of the GNU General Public License as published by
  - the Free Software Foundation, either version 3 of the License, or
  - (at your option) any later version.
  -
  - This program is distributed in the hope that it will be useful,
  - but WITHOUT ANY WARRANTY; without even the implied warranty of
  - MERCHANTABILITY or FITNESS FOR A PARTICULAR PURPOSE.  See the
  - GNU General Public License for more details.
  -
  - You should have received a copy of the GNU General Public License
  - along with this program.  If not, see <https://www.gnu.org/licenses/>.
  -->

<svg width="48" height="48" viewBox="0 0 48 48" fill="none" xmlns="http://www.w3.org/2000/svg">
<g clip-path="url(#clip0_20_2)">
<circle cx="24" cy="24" r="22" fill="white" stroke="#FF0000" stroke-width="4"/>
<path d="M12.7238 15.5455V33H10.0817V18.1875H9.97948L5.80334 20.9148V18.392L10.1585 15.5455H12.7238ZM16.2454 33V31.0909L22.1516 24.9716C22.7823 24.3068 23.3022 23.7244 23.7113 23.2244C24.1261 22.7187 24.4357 22.2386 24.6403 21.7841C24.8448 21.3295 24.9471 20.8466 24.9471 20.3352C24.9471 19.7557 24.8107 19.2557 24.538 18.8352C24.2653 18.4091 23.8931 18.0824 23.4215 17.8551C22.9499 17.6222 22.4187 17.5057 21.8278 17.5057C21.2028 17.5057 20.6573 17.6335 20.1914 17.8892C19.7255 18.1449 19.3675 18.5057 19.1175 18.9716C18.8675 19.4375 18.7425 19.983 18.7425 20.608H16.2283C16.2283 19.5455 16.4727 18.6165 16.9613 17.821C17.4499 17.0256 18.1204 16.4091 18.9727 15.9716C19.8249 15.5284 20.7937 15.3068 21.8789 15.3068C22.9755 15.3068 23.9414 15.5256 24.7766 15.9631C25.6175 16.3949 26.2738 16.9858 26.7454 17.7358C27.217 18.4801 27.4528 19.321 27.4528 20.2585C27.4528 20.9062 27.3306 21.5398 27.0863 22.1591C26.8477 22.7784 26.43 23.4687 25.8335 24.2301C25.2369 24.9858 24.4073 25.9034 23.3448 26.983L19.8761 30.6136V30.7415H27.734V33H16.2454ZM35.8408 33.2898C34.4942 33.2841 33.3437 32.929 32.3891 32.2244C31.4346 31.5199 30.7045 30.4943 30.1988 29.1477C29.6931 27.8011 29.4403 26.179 29.4403 24.2812C29.4403 22.3892 29.6931 20.7727 30.1988 19.4318C30.7102 18.0909 31.4431 17.0682 32.3977 16.3636C33.3579 15.6591 34.5056 15.3068 35.8408 15.3068C37.1761 15.3068 38.321 15.6619 39.2755 16.3722C40.23 17.0767 40.9602 18.0994 41.4658 19.4403C41.9772 20.7756 42.2329 22.3892 42.2329 24.2812C42.2329 26.1847 41.98 27.8097 41.4744 29.1562C40.9687 30.4972 40.2386 31.5227 39.284 32.233C38.3295 32.9375 37.1817 33.2898 35.8408 33.2898ZM35.8408 31.0142C37.0227 31.0142 37.946 30.4375 38.6107 29.2841C39.2812 28.1307 39.6164 26.4631 39.6164 24.2812C39.6164 22.8324 39.463 21.608 39.1562 20.608C38.855 19.6023 38.4204 18.8409 37.8522 18.3239C37.2897 17.8011 36.6192 17.5398 35.8408 17.5398C34.6647 17.5398 33.7414 18.1193 33.071 19.2784C32.4005 20.4375 32.0624 22.1051 32.0567 24.2812C32.0567 25.7358 32.2073 26.9659 32.5085 27.9716C32.8153 28.9716 33.2499 29.7301 33.8124 30.2472C34.3749 30.7585 35.0511 31.0142 35.8408 31.0142Z" fill="black"/>
</g>
<defs>
<clipPath id="clip0_20_2">
<rect width="48" height="48" fill="white"/>
</clipPath>
</defs>
</svg>
