<svg width="48" height="48" viewBox="0 0 48 48" fill="none" xmlns="http://www.w3.org/2000/svg">
<g clip-path="url(#clip0_20_2)">
<circle cx="24" cy="24" r="22" fill="white" stroke="#FF0000" stroke-width="4"/>
<path d="M16.8528 33.2386C15.7847 33.2386 14.8244 33.0341 13.9722 32.625C13.1256 32.2102 12.4494 31.642 11.9438 30.9205C11.4381 30.1989 11.1682 29.375 11.1341 28.4489H13.6909C13.7534 29.1989 14.0858 29.8153 14.6881 30.2983C15.2903 30.7812 16.0119 31.0227 16.8528 31.0227C17.5233 31.0227 18.117 30.8693 18.6341 30.5625C19.1568 30.25 19.5659 29.821 19.8614 29.2756C20.1625 28.7301 20.3131 28.108 20.3131 27.4091C20.3131 26.6989 20.1597 26.0653 19.8528 25.5085C19.546 24.9517 19.1227 24.5142 18.583 24.196C18.0489 23.8778 17.4352 23.7159 16.742 23.7102C16.2136 23.7102 15.6824 23.8011 15.1483 23.983C14.6142 24.1648 14.1824 24.4034 13.8528 24.6989L11.4409 24.3409L12.421 15.5455H22.0176V17.804H14.6114L14.0574 22.6875H14.1597C14.5006 22.358 14.9523 22.0824 15.5148 21.8608C16.083 21.6392 16.6909 21.5284 17.3386 21.5284C18.4011 21.5284 19.3472 21.7812 20.1767 22.2869C21.0119 22.7926 21.6682 23.483 22.1455 24.358C22.6284 25.2273 22.867 26.2273 22.8614 27.358C22.867 28.4886 22.6114 29.4972 22.0943 30.3835C21.583 31.2699 20.8727 31.9687 19.9636 32.4801C19.0602 32.9858 18.0233 33.2386 16.8528 33.2386ZM30.851 33.2898C29.5044 33.2841 28.3538 32.929 27.3993 32.2244C26.4447 31.5199 25.7146 30.4943 25.209 29.1477C24.7033 27.8011 24.4504 26.179 24.4504 24.2812C24.4504 22.3892 24.7033 20.7727 25.209 19.4318C25.7203 18.0909 26.4533 17.0682 27.4078 16.3636C28.368 15.6591 29.5158 15.3068 30.851 15.3068C32.1862 15.3068 33.3311 15.6619 34.2857 16.3722C35.2402 17.0767 35.9703 18.0994 36.476 19.4403C36.9874 20.7756 37.243 22.3892 37.243 24.2812C37.243 26.1847 36.9902 27.8097 36.4845 29.1562C35.9788 30.4972 35.2487 31.5227 34.2942 32.233C33.3396 32.9375 32.1919 33.2898 30.851 33.2898ZM30.851 31.0142C32.0328 31.0142 32.9561 30.4375 33.6209 29.2841C34.2913 28.1307 34.6266 26.4631 34.6266 24.2812C34.6266 22.8324 34.4732 21.608 34.1663 20.608C33.8652 19.6023 33.4305 18.8409 32.8624 18.3239C32.2999 17.8011 31.6294 17.5398 30.851 17.5398C29.6749 17.5398 28.7516 18.1193 28.0811 19.2784C27.4107 20.4375 27.0726 22.1051 27.0669 24.2812C27.0669 25.7358 27.2175 26.9659 27.5186 27.9716C27.8254 28.9716 28.2601 29.7301 28.8226 30.2472C29.3851 30.7585 30.0612 31.0142 30.851 31.0142Z" fill="black"/>
</g>
<defs>
<clipPath id="clip0_20_2">
<rect width="48" height="48" fill="white"/>
</clipPath>
</defs>
</svg>
