<svg width="48" height="48" viewBox="0 0 48 48" fill="none" xmlns="http://www.w3.org/2000/svg">
<g clip-path="url(#clip0_20_2)">
<circle cx="24" cy="24" r="22" fill="white" stroke="#FF0000" stroke-width="4"/>
<path d="M19.4832 15.5455V33H16.8411V18.1875H16.7388L12.5627 20.9148V18.392L16.9178 15.5455H19.4832ZM29.0815 33.2898C27.7349 33.2841 26.5843 32.929 25.6298 32.2244C24.6752 31.5199 23.9451 30.4943 23.4394 29.1477C22.9337 27.8011 22.6809 26.179 22.6809 24.2812C22.6809 22.3892 22.9337 20.7727 23.4394 19.4318C23.9508 18.0909 24.6837 17.0682 25.6383 16.3636C26.5985 15.6591 27.7462 15.3068 29.0815 15.3068C30.4167 15.3068 31.5616 15.6619 32.5161 16.3722C33.4707 17.0767 34.2008 18.0994 34.7065 19.4403C35.2178 20.7756 35.4735 22.3892 35.4735 24.2812C35.4735 26.1847 35.2207 27.8097 34.715 29.1562C34.2093 30.4972 33.4792 31.5227 32.5246 32.233C31.5701 32.9375 30.4224 33.2898 29.0815 33.2898ZM29.0815 31.0142C30.2633 31.0142 31.1866 30.4375 31.8514 29.2841C32.5218 28.1307 32.857 26.4631 32.857 24.2812C32.857 22.8324 32.7036 21.608 32.3968 20.608C32.0957 19.6023 31.661 18.8409 31.0928 18.3239C30.5303 17.8011 29.8599 17.5398 29.0815 17.5398C27.9053 17.5398 26.982 18.1193 26.3116 19.2784C25.6411 20.4375 25.3031 22.1051 25.2974 24.2812C25.2974 25.7358 25.4479 26.9659 25.7491 27.9716C26.0559 28.9716 26.4906 29.7301 27.0531 30.2472C27.6156 30.7585 28.2917 31.0142 29.0815 31.0142Z" fill="black"/>
</g>
<defs>
<clipPath id="clip0_20_2">
<rect width="48" height="48" fill="white"/>
</clipPath>
</defs>
</svg>
