<svg width="108" height="108" viewBox="0 0 108 108" fill="none" xmlns="http://www.w3.org/2000/svg">
<path d="M38 58L45.5 28" stroke="#B65A00" stroke-width="8"/>
<path d="M39.5 26.5L51.5 29.5" stroke="#B65A00" stroke-width="2"/>
<path d="M41 54C41 54 48.5 54 53 54C58.5 54 62 50 62 45C62 40 58.5 36 53 36C47.5 36 35 36 35 36" stroke="#561E08" stroke-width="8"/>
<path d="M35 30V42" stroke="#561E08" stroke-width="2"/>
<path d="M30.6194 71.0299L29.6493 74.9104L37.4104 76.8507L38.3806 72.9701L34.5 72L30.6194 71.0299ZM38.8106 54.7575L34.9301 53.7873L38.8106 54.7575ZM34.5 72L38.3806 72.9701L42.6912 55.7276L38.8106 54.7575L34.9301 53.7873L30.6194 71.0299L34.5 72ZM59.9697 74.1213L63.8503 75.0914C63.932 74.7643 63.8612 75.0476 63.9444 74.7147C63.9654 74.631 64.0206 74.4101 64.043 74.3206C64.1068 74.065 64.1834 73.7588 64.2531 73.48C64.2539 73.4769 64.2592 73.4556 64.26 73.4526C64.2661 73.4282 64.2607 73.4495 64.2668 73.4251C64.2729 73.4007 64.2745 73.3945 64.2806 73.37C64.3257 73.1898 64.2633 73.4394 64.3084 73.2589C64.325 73.1924 64.3197 73.2135 64.3364 73.1467C64.349 73.0964 64.3521 73.0842 64.3647 73.0335C64.39 72.9323 64.3537 73.0777 64.379 72.9764C64.3822 72.9637 64.383 72.9605 64.3862 72.9478C64.3874 72.943 64.3885 72.9382 64.3897 72.9335C64.3909 72.9287 64.3921 72.9239 64.3933 72.9191C64.3941 72.9159 64.3997 72.8936 64.4005 72.8904C64.4053 72.8712 64.4029 72.8807 64.4077 72.8615C64.4084 72.859 64.4143 72.8352 64.4149 72.8326C64.4374 72.7428 64.3997 72.8935 64.4222 72.8037C64.4873 72.5434 64.4153 72.8312 64.4807 72.5695C64.533 72.3603 64.5473 72.3032 64.6011 72.0881C64.6281 71.9801 64.6973 71.7031 64.7258 71.5893C64.7328 71.5611 64.7824 71.3629 64.7898 71.3333C64.8185 71.2184 64.7934 71.3189 64.8222 71.2037C64.909 70.8564 64.7679 71.4206 64.8549 71.073C64.8841 70.9558 64.8914 70.9268 64.921 70.8083C64.9951 70.512 64.8637 71.0377 64.9378 70.7414C64.9391 70.7358 64.9405 70.7302 64.9419 70.7246C64.9433 70.7191 64.9447 70.7135 64.9461 70.7079C64.9797 70.5735 64.9209 70.8086 64.9545 70.6743C64.9696 70.614 64.9563 70.6672 64.9714 70.6069C64.9864 70.5468 64.9648 70.6331 64.9798 70.5731C64.9823 70.563 64.9858 70.5492 64.9883 70.5392C65.0229 70.401 65.0217 70.4055 65.0567 70.2658C65.0873 70.1431 65.0951 70.1121 65.1261 69.988C65.1914 69.7268 65.0959 70.109 65.1612 69.8475C65.2163 69.6273 65.1415 69.9263 65.1966 69.7058C65.2364 69.547 65.1925 69.7223 65.2323 69.5631C65.2403 69.5313 65.2423 69.5233 65.2503 69.4914C65.3137 69.2376 65.2048 69.6732 65.2683 69.4193C65.3031 69.2801 65.2696 69.414 65.3045 69.2744C65.3772 68.9835 65.2682 69.4198 65.341 69.1284C65.3425 69.1223 65.344 69.1162 65.3456 69.1101C65.3471 69.104 65.3486 69.0979 65.3502 69.0918C65.3583 69.0591 65.3512 69.0877 65.3593 69.055C65.3609 69.0489 65.3624 69.0428 65.3639 69.0367C65.3655 69.0305 65.367 69.0244 65.3685 69.0182C65.3752 68.9914 65.3711 69.0082 65.3778 68.9814C65.4189 68.8166 65.3735 68.9983 65.4148 68.8332C65.4212 68.8075 65.427 68.7845 65.4334 68.7587C65.4396 68.7338 65.4365 68.7463 65.4428 68.7214C65.4435 68.7186 65.4514 68.6867 65.4521 68.684C65.4882 68.5396 65.4535 68.6783 65.4897 68.5336C65.5275 68.3823 65.4613 68.6472 65.4991 68.4958C65.5007 68.4896 65.5023 68.4832 65.5039 68.4769C65.5054 68.4706 65.507 68.4643 65.5086 68.458C65.5212 68.4076 65.5055 68.4706 65.5181 68.4201C65.5197 68.4138 65.5212 68.4075 65.5228 68.4012C65.5244 68.3948 65.526 68.3885 65.5276 68.3822C65.5615 68.2464 65.5317 68.3657 65.5657 68.2296C65.6284 67.979 65.5798 68.1734 65.6428 67.9213C65.6526 67.8821 65.7108 67.6492 65.721 67.6086C65.7475 67.5023 65.7141 67.6362 65.7407 67.5298C65.8021 67.2842 65.6891 67.7358 65.7505 67.4902C65.7567 67.4656 65.7543 67.4753 65.7604 67.4506C65.7621 67.444 65.7638 67.4374 65.7654 67.4308C65.7671 67.4242 65.7687 67.4176 65.7704 67.411C65.7889 67.3369 65.7618 67.4454 65.7803 67.3712C65.7947 67.3138 65.7858 67.3491 65.8002 67.2916C65.8103 67.2511 65.83 67.1723 65.8403 67.1314C65.9028 66.8814 65.818 67.2205 65.8806 66.9701L62 66L58.1194 65.0299C58.0656 65.2452 58.0122 65.4588 57.9598 65.6683C57.951 65.7034 57.9293 65.7905 57.9206 65.8252C57.886 65.9637 57.9162 65.8429 57.8816 65.981C57.8773 65.9983 57.8762 66.0026 57.8719 66.0198C57.8648 66.0485 57.8694 66.0298 57.8623 66.0585C57.8537 66.0929 57.8515 66.1015 57.843 66.1357C57.826 66.2035 57.8214 66.2219 57.8046 66.2894C57.7569 66.4799 57.814 66.2517 57.7664 66.4419C57.7552 66.4869 57.7682 66.4349 57.7569 66.4798C57.7554 66.4862 57.7538 66.4925 57.7522 66.4988C57.7506 66.5051 57.749 66.5114 57.7475 66.5177C57.7264 66.6019 57.7496 66.5092 57.7286 66.5933C57.6924 66.738 57.7271 66.5993 57.691 66.7437C57.6238 67.0123 57.7207 66.6247 57.6537 66.8929C57.6247 67.0087 57.664 66.8514 57.6351 66.9671C57.631 66.9836 57.63 66.9877 57.6259 67.0042C57.6243 67.0103 57.6228 67.0165 57.6212 67.0226C57.6197 67.0288 57.6182 67.0349 57.6166 67.0411C57.6151 67.0471 57.6089 67.072 57.6074 67.078C57.6059 67.0841 57.6043 67.0902 57.6028 67.0964C57.6013 67.1025 57.5997 67.1086 57.5982 67.1148C57.5967 67.1209 57.5951 67.127 57.5936 67.1331C57.5921 67.1393 57.5905 67.1454 57.589 67.1515C57.5875 67.1576 57.586 67.1637 57.5844 67.1698C57.5829 67.176 57.5814 67.1821 57.5799 67.1882C57.5591 67.2712 57.5823 67.1783 57.5616 67.2613C57.5601 67.2674 57.5585 67.2735 57.557 67.2795C57.5555 67.2856 57.554 67.2917 57.5525 67.2978C57.52 67.4275 57.5758 67.2044 57.5434 67.3341C57.5138 67.4523 57.5366 67.3612 57.5071 67.479C57.4754 67.6061 57.5209 67.4241 57.4891 67.5511C57.4827 67.5766 57.4776 67.5974 57.4712 67.6228C57.4632 67.6547 57.4702 67.6268 57.4622 67.6586C57.4607 67.6646 57.4593 67.6705 57.4578 67.6765C57.4563 67.6824 57.4548 67.6884 57.4533 67.6943C57.4335 67.7736 57.4553 67.6864 57.4355 67.7656C57.408 67.8757 57.4453 67.7264 57.4178 67.8365C57.4123 67.8585 57.4056 67.8852 57.4001 67.9072C57.3986 67.9131 57.3972 67.9189 57.3957 67.9248C57.3942 67.9307 57.3928 67.9365 57.3913 67.9424C57.3898 67.9483 57.3884 67.9541 57.3869 67.96C57.3854 67.9659 57.384 67.9717 57.3825 67.9776C57.3755 68.0057 57.372 68.0197 57.365 68.0477C57.3416 68.141 57.3185 68.2336 57.2955 68.3255C57.2215 68.6216 57.3008 68.3043 57.2272 68.5989C57.1351 68.9671 57.1843 68.7703 57.0937 69.1327C57.0213 69.4225 57.1334 68.974 57.061 69.2634C57.055 69.2875 57.0508 69.3043 57.0448 69.3283C57.0268 69.4002 57.0466 69.3212 57.0286 69.393C56.9331 69.7752 57.0598 69.2683 56.9646 69.649C56.9112 69.8629 56.9549 69.6881 56.9017 69.9006C56.8743 70.0104 56.867 70.0394 56.8399 70.1478C56.7862 70.3629 56.7719 70.42 56.7196 70.6292C56.6934 70.7341 56.6869 70.7599 56.661 70.8634C56.6514 70.9019 56.6562 70.8828 56.6466 70.9212C56.645 70.9277 56.641 70.9437 56.6394 70.9501C56.6338 70.9724 56.6378 70.9565 56.6322 70.9788C56.6003 71.1064 56.6497 70.9086 56.6179 71.0361C56.5735 71.2136 56.6551 70.8872 56.6107 71.0647C56.6095 71.0694 56.6083 71.0742 56.6072 71.0789C56.606 71.0837 56.6048 71.0884 56.6036 71.0932C56.5285 71.3936 56.5656 71.2451 56.492 71.5397C56.2959 72.324 56.2619 72.4599 56.0891 73.1511L59.9697 74.1213ZM62 66L65.8806 66.9701C66.8379 63.1407 67.8398 61.2064 69.2015 60.0596C70.5222 58.9475 72.8889 58 78 58V54V50C72.1111 50 67.4778 51.0525 64.0485 53.9404C60.6602 56.7936 59.1621 60.8593 58.1194 65.0299L62 66ZM58.0299 74.1194L61.9104 73.1493L57.2593 54.5448L53.3787 55.5149L49.4982 56.4851L54.1493 75.0896L58.0299 74.1194ZM51.4384 54V50H39.7808V54V58H51.4384V54ZM53.3787 55.5149L57.2593 54.5448C56.5916 51.8738 54.1917 50 51.4384 50V54V58C50.5207 58 49.7207 57.3754 49.4982 56.4851L53.3787 55.5149ZM59.9697 74.1213L56.0891 73.1511C56.8523 70.0982 61.1587 70.1425 61.9104 73.1493L58.0299 74.1194L54.1493 75.0896C55.406 80.1163 62.582 80.1642 63.8503 75.0914L59.9697 74.1213ZM38.8106 54.7575L42.6912 55.7276C42.3573 57.0631 41.1574 58 39.7808 58V54V50C37.4864 50 35.4865 51.5615 34.9301 53.7873L38.8106 54.7575Z" fill="#F28E1C"/>
<path d="M87 54L73.5 62.6603V45.3397L87 54Z" fill="#F28E1C"/>
</svg>
