<!--
  - Copyright (C) 2026  Giste
  -
  - This program is free software: you can redistribute it and/or modify
  - it under the terms of the GNU General Public License as published by
  - the Free Software Foundation, either version 3 of the License, or
  - (at your option) any later version.
  -
  - This program is distributed in the hope that it will be useful,
  - but WITHOUT ANY WARRANTY; without even the implied warranty of
  - MERCHANTABILITY or FITNESS FOR A PARTICULAR PURPOSE.  See the
  - GNU General Public License for more details.
  -
  - You should have received a copy of the GNU General Public License
  - along with this program.  If not, see <https://www.gnu.org/licenses/>.
  -->

<svg width="48" height="48" viewBox="0 0 48 48" fill="none" xmlns="http://www.w3.org/2000/svg">
<g clip-path="url(#clip0_20_2)">
<circle cx="24" cy="24" r="23" fill="#376FDE" stroke="#E6E0E9" stroke-width="2"/>
<mask id="path-2-inside-1_20_2" fill="white">
<path d="M40 24C40 27.3789 38.9303 30.671 36.9443 33.4046C34.9582 36.1381 32.1578 38.1728 28.9443 39.2169L27.5599 34.9562C29.8736 34.2044 31.8899 32.7395 33.3199 30.7713C34.7498 28.8031 35.52 26.4328 35.52 24H40Z"/>
</mask>
<path d="M40 24C40 27.3789 38.9303 30.671 36.9443 33.4046C34.9582 36.1381 32.1578 38.1728 28.9443 39.2169L27.5599 34.9562C29.8736 34.2044 31.8899 32.7395 33.3199 30.7713C34.7498 28.8031 35.52 26.4328 35.52 24H40Z" stroke="white" stroke-width="12" mask="url(#path-2-inside-1_20_2)"/>
<mask id="path-3-inside-2_20_2" fill="white">
<path d="M16 37.8564C13.0738 36.167 10.7576 33.5945 9.38327 30.5078C8.00896 27.421 7.64713 23.9784 8.34964 20.6734L13.2013 21.7047C12.7165 23.9851 12.9662 26.3605 13.9145 28.4904C14.8627 30.6202 16.4609 32.3952 18.48 33.5609L16 37.8564Z"/>
</mask>
<path d="M16 37.8564C13.0738 36.167 10.7576 33.5945 9.38327 30.5078C8.00896 27.421 7.64713 23.9784 8.34964 20.6734L13.2013 21.7047C12.7165 23.9851 12.9662 26.3605 13.9145 28.4904C14.8627 30.6202 16.4609 32.3952 18.48 33.5609L16 37.8564Z" stroke="white" stroke-width="12" mask="url(#path-3-inside-2_20_2)"/>
<mask id="path-4-inside-3_20_2" fill="white">
<path d="M17 10.1436C19.9262 8.45416 23.3121 7.73446 26.6725 8.08765C30.0328 8.44084 33.1951 9.84878 35.7061 12.1097L32.3872 15.7957C30.6546 14.2357 28.4726 13.2642 26.154 13.0205C23.8353 12.7768 21.4991 13.2734 19.48 14.4391L17 10.1436Z"/>
</mask>
<path d="M17 10.1436C19.9262 8.45416 23.3121 7.73446 26.6725 8.08765C30.0328 8.44084 33.1951 9.84878 35.7061 12.1097L32.3872 15.7957C30.6546 14.2357 28.4726 13.2642 26.154 13.0205C23.8353 12.7768 21.4991 13.2734 19.48 14.4391L17 10.1436Z" stroke="white" stroke-width="12" mask="url(#path-4-inside-3_20_2)"/>
<path d="M37.5 17L43.9952 24.5L31.0048 24.5L37.5 17Z" fill="white"/>
<path d="M23.4103 39.2952L13.6675 41.1702L20.1627 29.9202L23.4103 39.2952Z" fill="white"/>
<path d="M11.75 15.9952L14.9976 6.62019L21.4928 17.8702L11.75 15.9952Z" fill="white"/>
</g>
<defs>
<clipPath id="clip0_20_2">
<rect width="48" height="48" fill="white"/>
</clipPath>
</defs>
</svg>
