<svg width="48" height="48" viewBox="0 0 48 48" fill="none" xmlns="http://www.w3.org/2000/svg">
<g clip-path="url(#clip0_20_2)">
<path d="M14.4329 0.903012L33.5671 0.903012L47.097 14.4329L47.097 33.5671L33.5671 47.097L14.4329 47.097L0.903012 33.5671L0.903012 14.4329L14.4329 0.903012Z" fill="#FB0000"/>
<path d="M32.9769 2.32597L45.6724 15.023L45.6731 32.9773L32.977 45.6724L15.0218 45.6735L2.32672 32.9774L2.3256 15.0222L15.0226 2.32672L32.9769 2.32597Z" stroke="white"/>
<path d="M10.6087 21.2727C10.5405 20.697 10.264 20.25 9.77912 19.9318C9.29427 19.6136 8.69957 19.4545 7.99503 19.4545C7.47988 19.4545 7.02912 19.5379 6.64276 19.7045C6.26018 19.8712 5.96094 20.1004 5.74503 20.392C5.53291 20.6837 5.42685 21.0152 5.42685 21.3864C5.42685 21.697 5.50071 21.964 5.64844 22.1875C5.79995 22.4072 5.99313 22.5909 6.22798 22.7386C6.46283 22.8826 6.70904 23.0019 6.96662 23.0966C7.2242 23.1875 7.46094 23.2614 7.67685 23.3182L8.85866 23.6364C9.1617 23.7159 9.49882 23.8258 9.87003 23.9659C10.245 24.1061 10.603 24.2973 10.9439 24.5398C11.2886 24.7784 11.5727 25.0852 11.7962 25.4602C12.0197 25.8352 12.1314 26.2955 12.1314 26.8409C12.1314 27.4697 11.9666 28.0379 11.6371 28.5455C11.3113 29.053 10.834 29.4564 10.2053 29.7557C9.58026 30.0549 8.82079 30.2045 7.92685 30.2045C7.09351 30.2045 6.37192 30.0701 5.76207 29.8011C5.15601 29.5322 4.67874 29.1572 4.33026 28.6761C3.98556 28.1951 3.79048 27.6364 3.74503 27H5.19957C5.23745 27.4394 5.38518 27.803 5.64276 28.0909C5.90412 28.375 6.23366 28.5871 6.63139 28.7273C7.03291 28.8636 7.46473 28.9318 7.92685 28.9318C8.46473 28.9318 8.94768 28.8447 9.37571 28.6705C9.80374 28.4924 10.1428 28.2462 10.3928 27.9318C10.6428 27.6136 10.7678 27.2424 10.7678 26.8182C10.7678 26.4318 10.6598 26.1174 10.4439 25.875C10.228 25.6326 9.94389 25.4356 9.59162 25.2841C9.23935 25.1326 8.85866 25 8.44957 24.8864L7.01776 24.4773C6.10866 24.2159 5.38897 23.8428 4.85866 23.358C4.32836 22.8731 4.06321 22.2386 4.06321 21.4545C4.06321 20.803 4.23935 20.2348 4.59162 19.75C4.94768 19.2614 5.42495 18.8826 6.02344 18.6136C6.62571 18.3409 7.29806 18.2045 8.04048 18.2045C8.79048 18.2045 9.45715 18.339 10.0405 18.608C10.6238 18.8731 11.0859 19.2367 11.4268 19.6989C11.7715 20.161 11.9534 20.6856 11.9723 21.2727H10.6087ZM13.8118 19.6136V18.3636H22.5391V19.6136H18.88V30H17.4709V19.6136H13.8118ZM34.0476 24.1818C34.0476 25.4091 33.826 26.4697 33.3828 27.3636C32.9396 28.2576 32.3317 28.947 31.5589 29.4318C30.7862 29.9167 29.9036 30.1591 28.9112 30.1591C27.9188 30.1591 27.0362 29.9167 26.2635 29.4318C25.4908 28.947 24.8828 28.2576 24.4396 27.3636C23.9964 26.4697 23.7749 25.4091 23.7749 24.1818C23.7749 22.9545 23.9964 21.8939 24.4396 21C24.8828 20.1061 25.4908 19.4167 26.2635 18.9318C27.0362 18.447 27.9188 18.2045 28.9112 18.2045C29.9036 18.2045 30.7862 18.447 31.5589 18.9318C32.3317 19.4167 32.9396 20.1061 33.3828 21C33.826 21.8939 34.0476 22.9545 34.0476 24.1818ZM32.6839 24.1818C32.6839 23.1742 32.5154 22.3239 32.1783 21.6307C31.8449 20.9375 31.3923 20.4129 30.8203 20.0568C30.2521 19.7008 29.6158 19.5227 28.9112 19.5227C28.2067 19.5227 27.5684 19.7008 26.9964 20.0568C26.4283 20.4129 25.9756 20.9375 25.6385 21.6307C25.3052 22.3239 25.1385 23.1742 25.1385 24.1818C25.1385 25.1894 25.3052 26.0398 25.6385 26.733C25.9756 27.4261 26.4283 27.9508 26.9964 28.3068C27.5684 28.6629 28.2067 28.8409 28.9112 28.8409C29.6158 28.8409 30.2521 28.6629 30.8203 28.3068C31.3923 27.9508 31.8449 27.4261 32.1783 26.733C32.5154 26.0398 32.6839 25.1894 32.6839 24.1818ZM36.4169 30V18.3636H40.3487C41.2616 18.3636 42.0078 18.5284 42.5874 18.858C43.1707 19.1837 43.6025 19.625 43.8828 20.1818C44.1631 20.7386 44.3033 21.3598 44.3033 22.0455C44.3033 22.7311 44.1631 23.3542 43.8828 23.9148C43.6063 24.4754 43.1783 24.9223 42.5987 25.2557C42.0192 25.5852 41.2768 25.75 40.3714 25.75H37.5533V24.5H40.326C40.951 24.5 41.4529 24.392 41.8317 24.1761C42.2105 23.9602 42.4851 23.6686 42.6555 23.3011C42.8298 22.9299 42.9169 22.5114 42.9169 22.0455C42.9169 21.5795 42.8298 21.1629 42.6555 20.7955C42.4851 20.428 42.2086 20.1402 41.826 19.9318C41.4434 19.7197 40.9358 19.6136 40.3033 19.6136H37.826V30H36.4169Z" fill="white"/>
</g>
<defs>
<clipPath id="clip0_20_2">
<rect width="48" height="48" fill="white"/>
</clipPath>
</defs>
</svg>
