<!--
  - Copyright (C) 2026  Giste
  -
  - This program is free software: you can redistribute it and/or modify
  - it under the terms of the GNU General Public License as published by
  - the Free Software Foundation, either version 3 of the License, or
  - (at your option) any later version.
  -
  - This program is distributed in the hope that it will be useful,
  - but WITHOUT ANY WARRANTY; without even the implied warranty of
  - MERCHANTABILITY or FITNESS FOR A PARTICULAR PURPOSE.  See the
  - GNU General Public License for more details.
  -
  - You should have received a copy of the GNU General Public License
  - along with this program.  If not, see <https://www.gnu.org/licenses/>.
  -->

<svg width="48" height="48" viewBox="0 0 48 48" fill="none" xmlns="http://www.w3.org/2000/svg">
<g clip-path="url(#clip0_20_2)">
<path d="M0 10C-3 10 -6 8 -6 8V38C-6 38 -2.46989 40 0 40C2.46989 40 3.53011 38 6 38C8.46989 38 9.53011 40 12 40C14.4699 40 15.5301 38 18 38C20.4699 38 21.5301 40 24 40C26.4699 40 27.5301 38 30 38C32.4699 38 33.5301 40 36 40C38.4699 40 39.5301 38 42 38C44.4699 38 45.5301 40 48 40C50.4699 40 54 38 54 38V8C54 8 50.4699 10 48 10C45.5301 10 44.4699 8 42 8C39.5301 8 38.4699 10 36 10C33.5301 10 32.4699 8 30 8C27.5301 8 26.4699 10 24 10C21.5301 10 20.4699 8 18 8C15.5301 8 14.4699 10 12 10C9.53011 10 8.46989 8 6 8C3.53011 8 3 10 0 10Z" fill="#0088FF" stroke="#E6E0E9" stroke-width="2"/>
</g>
<defs>
<clipPath id="clip0_20_2">
<rect width="48" height="48" fill="white"/>
</clipPath>
</defs>
</svg>
